<?xml version="1.0" encoding="utf-8"?>
<!-- Generator: Adobe Illustrator 23.0.1, SVG Export Plug-In . SVG Version: 6.00 Build 0)  -->
<svg version="1.1" id="图层_1" xmlns="http://www.w3.org/2000/svg" xmlns:xlink="http://www.w3.org/1999/xlink" x="0px" y="0px"
	 viewBox="0 0 58.9 22" style="enable-background:new 0 0 58.9 22;" xml:space="preserve">
<style type="text/css">
	.st0{fill-rule:evenodd;clip-rule:evenodd;fill:#E2E2E2;}
	.st1{fill-rule:evenodd;clip-rule:evenodd;fill:#E07241;}
	.st2{fill-rule:evenodd;clip-rule:evenodd;fill:#406CE9;}
</style>
<title>Group 54 Copy 2</title>
<desc>Created with Sketch.</desc>
<path class="st0" d="M8.1,19.2c2.8,0,5.1-2.3,5.1-5.1S10.9,9,8.1,9C5.3,8.9,3,11.2,3,14C3,16.9,5.3,19.2,8.1,19.2z"/>
<path class="st0" d="M15.4,10.4c-0.5-1.1-1.2-2-2.1-2.7c-0.9-0.8-2-1.3-3.1-1.6C9.5,5.9,8.9,5.9,8.3,5.8c-0.2,0-0.4-0.1-0.6-0.1
	C7.1,5.5,6.4,5.3,5.8,5c-0.7-0.3-1.4-0.7-2-1.2c-0.4-0.3-0.9,0-0.9,0.5v5.2c0,0.5,0.6,0.7,0.9,0.4C5,8.7,6.6,8,8.4,8.1
	c3,0.2,5.5,2.7,5.6,5.7c0.1,3.4-2.6,6.2-5.9,6.2c-3.1,0-5.6-2.4-5.9-5.4V14V2.3l0,0l0,0c0-0.9-0.5-1.6-1.2-2l0,0l0,0
	C0.7,0.2,0.4,0.1,0.2,0l0,0C0.1,0,0,0.1,0,0.2C0,1,0,4.6,0,4.6l0,0c0.1,0,0.1,0,0.2,0c-0.1,0-0.1,0-0.2,0v9.2c0,4.3,3.4,8,7.7,8.2
	c4.6,0.2,8.5-3.5,8.5-8.1C16.2,12.7,15.9,11.5,15.4,10.4z"/>
<path class="st0" d="M31.4,14.7V10c0-0.3-0.1-0.6-0.3-0.8l0,0C30.9,9.1,30.6,9,30.3,9c-0.3,0-0.6,0.1-0.8,0.3
	c-0.2,0.2-0.3,0.5-0.3,0.8v8.1c0,0.3,0.1,0.6,0.3,0.8l0,0c0.2,0.2,0.5,0.3,0.8,0.3c0.1,0,0.2,0,0.2,0c0.1,0,0.2,0,0.2-0.1l0,0
	c0.1,0,0.2-0.1,0.2-0.1c0.1,0,0.1-0.1,0.2-0.2l2.8-3.1l2.8,3l0,0l0,0c0.2,0.2,0.5,0.3,0.8,0.3c0.3,0,0.6-0.1,0.8-0.3l0,0l0,0
	c0.2-0.2,0.3-0.5,0.3-0.8c0-0.3-0.1-0.6-0.3-0.8L35.4,14l2.9-3.2c0.2-0.2,0.3-0.5,0.3-0.8c0-0.3-0.1-0.6-0.3-0.8l0,0l0,0
	c-0.2-0.2-0.5-0.3-0.8-0.3c-0.3,0-0.6,0.1-0.8,0.3l0,0l0,0l-5.4,5.9L31.4,14.7L31.4,14.7z"/>
<path class="st0" d="M52.1,14.4l-2.8,3c-0.2,0.2-0.3,0.5-0.3,0.8c0,0.3,0.1,0.6,0.3,0.8l0,0l0,0c0.2,0.2,0.5,0.3,0.8,0.3
	c0.3,0,0.6-0.1,0.8-0.3l0,0l0,0l2.8-3l2.8,3l0,0l0,0c0.2,0.2,0.5,0.3,0.8,0.3c0.3,0,0.6-0.1,0.8-0.3l0,0l0,0
	c0.2-0.2,0.3-0.5,0.3-0.8c0-0.3-0.1-0.6-0.3-0.8l-2.9-3.2l2.9-3.2c0.2-0.2,0.3-0.5,0.3-0.8c0-0.3-0.1-0.6-0.3-0.8l0,0l0,0
	c-0.2-0.2-0.5-0.3-0.8-0.3c-0.3,0-0.6,0.1-0.8,0.3l0,0l0,0l-2.8,3l-2.8-3l0,0l0,0c-0.2-0.2-0.5-0.3-0.8-0.3c-0.3,0-0.6,0.1-0.8,0.3
	l0,0l0,0C49.1,9.6,49,9.9,49,10.2c0,0.3,0.1,0.6,0.3,0.8l2.9,3.2L52.1,14.4z"/>
<path class="st1" d="M47.2,12.7h-6.5c-0.3,0-0.6,0.1-0.8,0.3c-0.2,0.2-0.3,0.5-0.3,0.8v4.4c0,0.3,0.1,0.6,0.3,0.8l0,0
	c0.2,0.2,0.5,0.3,0.8,0.3h6.5c0.3,0,0.6-0.1,0.8-0.3c0.2-0.2,0.3-0.5,0.3-0.8c0-0.3-0.1-0.6-0.3-0.8l0,0c-0.2-0.2-0.5-0.3-0.8-0.3
	h-5.4v-2.2h5.4c0.3,0,0.6-0.1,0.8-0.3s0.3-0.5,0.3-0.8c0-0.3-0.1-0.6-0.3-0.8l0,0C47.8,12.8,47.5,12.7,47.2,12.7z"/>
<path class="st2" d="M47.2,9h-6.5c-0.3,0-0.6,0.1-0.8,0.3c-0.2,0.2-0.3,0.5-0.3,0.8c0,0.3,0.1,0.6,0.3,0.8l0,0
	c0.2,0.2,0.5,0.3,0.8,0.3h6.5c0.3,0,0.6-0.1,0.8-0.3c0.2-0.2,0.3-0.5,0.3-0.8c0-0.3-0.1-0.6-0.3-0.8l0,0C47.8,9.1,47.5,9,47.2,9z"/>
<path class="st0" d="M25.5,9h-5.8c-0.3,0-0.6,0.1-0.8,0.3c-0.2,0.2-0.3,0.5-0.3,0.8c0,1.6,0,2.9,0,4.6c0,0.3,0.1,0.6,0.3,0.8
	c0.2,0.2,0.5,0.3,0.8,0.3c0.3,0,0.6-0.1,0.8-0.3l0,0c0.2-0.2,0.3-0.5,0.3-0.8v-3.5h4.7h0.2c0.5,0,0.8,0.4,0.8,0.8l0,0
	c0,0.4-0.3,0.7-0.7,0.8h-2.6c-0.3,0-0.6,0.1-0.8,0.3c-0.2,0.2-0.3,0.5-0.3,0.8c0,0.3,0.1,0.6,0.3,0.8l0,0c0.2,0.2,0.5,0.3,0.8,0.3
	h2.1c0.4,0,1.1,0.2,1.1,1.2l0,0v0.1l0,0c0,0.4-0.4,0.8-0.8,0.8c-2,0-4,0-6,0c-0.3,0-0.6,0.1-0.8,0.3l0,0c-0.2,0.2-0.3,0.5-0.3,0.8
	c0,0.3,0.1,0.6,0.3,0.8c0.2,0.2,0.5,0.3,0.8,0.3h5.1l0,0h0.6l0,0h0.1l0,0c1.6,0,3-1.4,3-3l0,0c0-0.8-0.4-1.6-0.9-2.1
	c0.6-0.5,0.9-1.3,0.9-2.1l0,0C28.4,10.3,27.1,9,25.5,9L25.5,9z"/>
</svg>
